<mxfile host="app.diagrams.net" modified="2022-05-31T09:40:17.505Z" agent="5.0 (Windows NT 10.0; Win64; x64) AppleWebKit/537.36 (KHTML, like Gecko) Chrome/101.0.4951.64 Safari/537.36 Edg/101.0.1210.53" etag="C1-y4BPUYAl2i3zFy3yf" version="18.1.3" type="github">
  <diagram id="vmutlat7jzf_mYLnxOFj" name="Page-1">
    <mxGraphModel dx="734" dy="468" grid="1" gridSize="10" guides="1" tooltips="1" connect="1" arrows="1" fold="1" page="1" pageScale="1" pageWidth="850" pageHeight="1100" math="0" shadow="0">
      <root>
        <mxCell id="0" />
        <mxCell id="1" parent="0" />
        <mxCell id="dc01B198bxIwwC5K-YJB-23" value="" style="rounded=0;whiteSpace=wrap;html=1;fontSize=12;fontColor=#3399FF;verticalAlign=middle;glass=0;fillColor=default;strokeColor=#3399FF;" vertex="1" parent="1">
          <mxGeometry x="330" y="130" width="160" height="280" as="geometry" />
        </mxCell>
        <mxCell id="dc01B198bxIwwC5K-YJB-4" value="" style="rounded=0;whiteSpace=wrap;html=1;fontSize=12;fontColor=#3399FF;verticalAlign=middle;glass=0;fillColor=default;strokeColor=#3399FF;" vertex="1" parent="1">
          <mxGeometry x="30" y="130" width="250" height="280" as="geometry" />
        </mxCell>
        <mxCell id="dc01B198bxIwwC5K-YJB-5" value="" style="rounded=0;whiteSpace=wrap;html=1;fontSize=12;fontColor=#3399FF;verticalAlign=middle;glass=0;fillColor=default;strokeColor=#3399FF;" vertex="1" parent="1">
          <mxGeometry x="520" y="130" width="260" height="280" as="geometry" />
        </mxCell>
        <mxCell id="dc01B198bxIwwC5K-YJB-6" value="Local OS (Win10)" style="text;strokeColor=none;fillColor=none;align=left;verticalAlign=middle;spacingLeft=4;spacingRight=4;overflow=hidden;points=[[0,0.5],[1,0.5]];portConstraint=eastwest;rotatable=0;fontStyle=1;fontSize=12;fontColor=#3399FF;" vertex="1" parent="1">
          <mxGeometry x="50" y="140" width="110" height="30" as="geometry" />
        </mxCell>
        <mxCell id="dc01B198bxIwwC5K-YJB-7" value="VV (OpenSUSE)" style="text;strokeColor=none;fillColor=none;align=left;verticalAlign=middle;spacingLeft=4;spacingRight=4;overflow=hidden;points=[[0,0.5],[1,0.5]];portConstraint=eastwest;rotatable=0;fontStyle=1;fontSize=12;fontColor=#3399FF;" vertex="1" parent="1">
          <mxGeometry x="540" y="140" width="110" height="30" as="geometry" />
        </mxCell>
        <mxCell id="dc01B198bxIwwC5K-YJB-33" value="" style="edgeStyle=orthogonalEdgeStyle;rounded=0;orthogonalLoop=1;jettySize=auto;html=1;strokeColor=#000000;entryX=0;entryY=0.5;entryDx=0;entryDy=0;" edge="1" parent="1" source="dc01B198bxIwwC5K-YJB-9" target="dc01B198bxIwwC5K-YJB-25">
          <mxGeometry relative="1" as="geometry" />
        </mxCell>
        <mxCell id="dc01B198bxIwwC5K-YJB-9" value="" style="rounded=1;whiteSpace=wrap;html=1;fontSize=12;fillColor=#1ba1e2;strokeColor=#006EAF;fontColor=#ffffff;" vertex="1" parent="1">
          <mxGeometry x="52.5" y="200" width="205" height="80" as="geometry" />
        </mxCell>
        <mxCell id="dc01B198bxIwwC5K-YJB-10" value="Lens" style="text;html=1;align=center;verticalAlign=middle;whiteSpace=wrap;rounded=0;fontSize=12;fontColor=#FFFFFF;" vertex="1" parent="1">
          <mxGeometry x="125" y="198" width="60" height="30" as="geometry" />
        </mxCell>
        <mxCell id="dc01B198bxIwwC5K-YJB-11" value="" style="rounded=1;whiteSpace=wrap;html=1;fontSize=12;fontColor=#ffffff;fillColor=#1ba1e2;strokeColor=#006EAF;" vertex="1" parent="1">
          <mxGeometry x="555" y="199" width="200" height="82" as="geometry" />
        </mxCell>
        <mxCell id="dc01B198bxIwwC5K-YJB-12" value="RKE2/K8S Cluster" style="text;html=1;strokeColor=none;fillColor=none;align=center;verticalAlign=middle;whiteSpace=wrap;rounded=0;fontSize=12;fontColor=#FFFFFF;" vertex="1" parent="1">
          <mxGeometry x="599" y="200" width="112" height="30" as="geometry" />
        </mxCell>
        <mxCell id="dc01B198bxIwwC5K-YJB-13" value="UI Access" style="rounded=0;whiteSpace=wrap;html=1;glass=0;fontSize=12;fontColor=#FFFFFF;fillColor=#f0a30a;strokeColor=#BD7000;" vertex="1" parent="1">
          <mxGeometry x="95" y="221.5" width="120" height="22.5" as="geometry" />
        </mxCell>
        <mxCell id="dc01B198bxIwwC5K-YJB-14" value="VxRail Manager" style="rounded=0;whiteSpace=wrap;html=1;glass=0;fontSize=12;fontColor=#FFFFFF;fillColor=#f0a30a;strokeColor=#BD7000;" vertex="1" parent="1">
          <mxGeometry x="595" y="230" width="120" height="26" as="geometry" />
        </mxCell>
        <mxCell id="dc01B198bxIwwC5K-YJB-24" value="Jump OS(Ununtu)" style="text;strokeColor=none;fillColor=none;align=left;verticalAlign=middle;spacingLeft=4;spacingRight=4;overflow=hidden;points=[[0,0.5],[1,0.5]];portConstraint=eastwest;rotatable=0;fontStyle=1;fontSize=12;fontColor=#3399FF;" vertex="1" parent="1">
          <mxGeometry x="355" y="140" width="125" height="30" as="geometry" />
        </mxCell>
        <mxCell id="dc01B198bxIwwC5K-YJB-34" value="" style="edgeStyle=orthogonalEdgeStyle;rounded=0;orthogonalLoop=1;jettySize=auto;html=1;strokeColor=#000000;" edge="1" parent="1" source="dc01B198bxIwwC5K-YJB-25" target="dc01B198bxIwwC5K-YJB-11">
          <mxGeometry relative="1" as="geometry" />
        </mxCell>
        <mxCell id="dc01B198bxIwwC5K-YJB-25" value="Proxy (SSH)" style="rounded=1;whiteSpace=wrap;html=1;fontSize=12;fillColor=#1ba1e2;strokeColor=#006EAF;fontColor=#ffffff;" vertex="1" parent="1">
          <mxGeometry x="350" y="199" width="120" height="82" as="geometry" />
        </mxCell>
        <mxCell id="dc01B198bxIwwC5K-YJB-32" value="" style="edgeStyle=orthogonalEdgeStyle;rounded=0;orthogonalLoop=1;jettySize=auto;html=1;" edge="1" parent="1" source="dc01B198bxIwwC5K-YJB-27" target="dc01B198bxIwwC5K-YJB-30">
          <mxGeometry relative="1" as="geometry" />
        </mxCell>
        <mxCell id="dc01B198bxIwwC5K-YJB-27" value="" style="rounded=1;whiteSpace=wrap;html=1;fontSize=12;fillColor=#1ba1e2;strokeColor=#006EAF;fontColor=#ffffff;" vertex="1" parent="1">
          <mxGeometry x="52.5" y="300" width="205" height="90" as="geometry" />
        </mxCell>
        <mxCell id="dc01B198bxIwwC5K-YJB-28" value="Postman" style="text;html=1;align=center;verticalAlign=middle;whiteSpace=wrap;rounded=0;fontSize=12;fontColor=#FFFFFF;" vertex="1" parent="1">
          <mxGeometry x="120" y="300" width="60" height="30" as="geometry" />
        </mxCell>
        <mxCell id="dc01B198bxIwwC5K-YJB-29" value="Debugger" style="rounded=0;whiteSpace=wrap;html=1;glass=0;fontSize=12;fontColor=#FFFFFF;fillColor=#f0a30a;strokeColor=#BD7000;" vertex="1" parent="1">
          <mxGeometry x="95" y="330" width="120" height="30" as="geometry" />
        </mxCell>
        <mxCell id="dc01B198bxIwwC5K-YJB-30" value="Proxy" style="rounded=0;whiteSpace=wrap;html=1;glass=0;fontSize=12;fontColor=#FFFFFF;fillColor=#f0a30a;strokeColor=#BD7000;" vertex="1" parent="1">
          <mxGeometry x="95" y="250" width="120" height="22.5" as="geometry" />
        </mxCell>
      </root>
    </mxGraphModel>
  </diagram>
</mxfile>
